<svg width="89" height="84" viewBox="0 0 89 84" fill="none" xmlns="http://www.w3.org/2000/svg">
<path d="M40.3689 70.3143C37.7883 65.7227 34.5588 61.0587 30.6806 56.3223C26.8023 51.5859 23.9126 48.7139 22.0117 47.7064L21.8983 46.3356L29.7298 41.2597C30.6868 40.6385 32.7077 41.892 35.7925 45.0201C38.8211 48.1099 41.581 51.7149 44.0722 55.8349C44.0185 55.5519 44.0649 55.1523 44.2113 54.636C44.3016 54.0815 44.8614 53.1692 45.8908 51.8992C46.8731 50.6381 48.3021 49.4145 50.178 48.2282L58.0802 43.1389L58.901 44.3757C53.1343 50.5501 49.9638 57.4048 49.3895 64.9397C49.2903 65.447 49.0272 65.8633 48.6004 66.1886L41.7629 70.7095L40.3689 70.3143Z" fill="#FBFBFB"/>
<path d="M40.774 63.8459C39.4331 62.4054 38.3036 59.3253 37.3857 54.6056C36.4701 49.8181 35.8145 44.887 35.4187 39.8123C35.0229 34.7377 34.475 29.6407 33.7751 24.5212C33.0777 19.3339 32.2378 15.7547 31.2555 13.7837L31.0211 13.2149L31.3283 11.7485L39.253 8.10937C39.7 7.95554 40.1034 8.07187 40.4632 8.45833C41.8041 9.89878 42.9323 13.0128 43.8479 17.8003C44.7658 22.5201 45.4227 27.4172 45.8185 32.4919C46.2143 37.5665 46.7609 42.6974 47.4584 47.8847C48.1582 53.0042 48.9993 56.5495 49.9817 58.5205L50.216 59.0893L49.9088 60.5557L41.9315 64.2439C41.4869 64.3299 41.1011 64.1972 40.774 63.8459Z" fill="#FBFBFB"/>
</svg>
